<?xml version="1.0" standalone="no"?>
<!DOCTYPE svg PUBLIC "-//W3C//DTD SVG 1.1//EN" "http://www.w3.org/Graphics/SVG/1.1/DTD/svg11.dtd" >
<svg xmlns="http://www.w3.org/2000/svg" xmlns:xlink="http://www.w3.org/1999/xlink" version="1.1">
<metadata>
Created by FontForge 20170731 at Sat Sep  6 10:31:46 2003
 By Aleksey,,,
Copyright (c) Typographer Mediengestaltung, 2000. All rights reserved.
</metadata>
<defs>
<font id="Nougat-ExtraBlack" horiz-adv-x="600" >
  <font-face 
    font-family="Nougat"
    font-weight="1000"
    font-stretch="normal"
    units-per-em="1000"
    panose-1="2 0 11 6 2 0 0 2 0 4"
    ascent="800"
    descent="-200"
    x-height="500"
    cap-height="684"
    bbox="-169 -195 1395 900"
    underline-thickness="50"
    underline-position="-175"
    unicode-range="U+0005-E004"
  />
<missing-glyph horiz-adv-x="500" 
d="M63 0h375v900h-375v-900zM125 63v775h250v-775h-250z" />
    <glyph glyph-name=".notdef" horiz-adv-x="500" 
d="M63 0h375v900h-375v-900zM125 63v775h250v-775h-250z" />
    <glyph glyph-name=".null" unicode="&#xe000;" horiz-adv-x="0" 
 />
    <glyph glyph-name="nonmarkingreturn" unicode="&#xe001;" horiz-adv-x="300" 
 />
    <glyph glyph-name="breve" horiz-adv-x="400" 
d="M381 791h-125l-64 -86l-63 86h-119q9 -69 60 -116q51 -45 122 -45q73 0 126 44q52 45 63 117z" />
    <glyph glyph-name="dotaccent" horiz-adv-x="300" 
d="M250 716q0 36 -31 61q-31 26 -67 26q-39 0 -68 -23q-32 -24 -32 -62q0 -39 29 -62.5t69 -23.5q37 0 69 23q31 24 31 61z" />
    <glyph glyph-name="ring" horiz-adv-x="300" 
d="M284 686q0 45 -42 74q-38 26 -85 26q-49 0 -87 -23q-44 -27 -44 -73q0 -44 44 -73q37 -25 86 -25q47 0 85 23q43 25 43 71zM194 688q0 -40 -38 -40q-40 0 -40 38q0 40 39 40q16 0 27.5 -11t11.5 -27z" />
    <glyph glyph-name="caron" horiz-adv-x="400" 
d="M400 794h-146l-54 -69l-58 69h-147l120 -132h166z" />
    <glyph glyph-name="dotlessi" unicode="&#xd;" horiz-adv-x="282" 
d="M289 192h-48v308h-199l-48 -187h47v-313h200z" />
    <glyph glyph-name="fraction" horiz-adv-x="188" 
d="M327 664l-59 39l-437 -689l59 -36z" />
    <glyph glyph-name="fi" horiz-adv-x="596" 
d="M599 711h-201l-44 -170h199zM599 192h-48v308h-311q0 40 37 40l16 -2l43 173h-123q-163 0 -163 -153v-58h-16l-46 -187h61v-313h199v313h103v-313h200z" />
    <glyph glyph-name="fl" horiz-adv-x="604" 
d="M609 192h-49v519h-347q-163 0 -163 -153v-58h-16l-46 -187h61v-313h199v313h38l48 187h-94q0 41 58 40l63 -2v-538h199z" />
    <glyph glyph-name="Lslash" horiz-adv-x="386" 
d="M399 213h-144v109l75 28l-35 95l-40 -14v253h-214l-47 -205h47v-126l-72 -26l34 -96l38 14v-245h309z" />
    <glyph glyph-name="lslash" horiz-adv-x="282" 
d="M321 350l-36 95l-45 -16v282h-185l-61 -191h47v-163l-82 -30l35 -96l47 17v-248h199l49 192h-49v128z" />
    <glyph glyph-name="Zcaron" horiz-adv-x="485" 
d="M471 684h-406l-54 -206h163l-167 -478h406l54 209h-162zM472 862h-146l-54 -69l-58 69h-147l120 -132h166z" />
    <glyph glyph-name="zcaron" horiz-adv-x="383" 
d="M369 192h-101l101 308h-303l-46 -188h93l-106 -312h313zM399 675h-146l-54 -69l-58 69h-147l120 -132h166z" />
    <glyph glyph-name="space" unicode=" " horiz-adv-x="541" 
 />
    <glyph glyph-name="exclam" unicode="!" horiz-adv-x="308" 
d="M266 253v431h-202l-51 -184h42v-247h211zM274 101q0 52 -32.5 81.5t-86.5 29.5q-48 0 -79 -32t-31 -80q0 -49 32.5 -79.5t81.5 -30.5q51 0 83 30t32 81z" />
    <glyph glyph-name="quotedbl" unicode="&#x22;" horiz-adv-x="405" 
d="M364 685h-137l-26 -229h137zM176 685h-137l-26 -229h137z" />
    <glyph glyph-name="numbersign" unicode="#" horiz-adv-x="547" 
d="M528 489h-74l46 176h-98l-44 -176h-88l46 176h-97l-45 -176h-97l-17 -103h95l-29 -115h-88l-21 -101h88l-45 -171h91l50 171h90l-51 -171h96l50 171h79l18 101h-81l34 115h74zM338 384l-31 -114h-91l34 114h88z" />
    <glyph glyph-name="dollar" unicode="$" horiz-adv-x="556" 
d="M534 217q0 100 -75 156q-42 31 -137 60q-73 22 -73 41q0 35 59 35q58 0 153 -49l51 184q-35 13 -71.5 23t-74.5 17v27h-181v-34q-73 -17 -119 -72q-47 -56 -47 -127q0 -96 75 -150q36 -26 138 -61q74 -26 74 -52q0 -32 -41 -32q-85 0 -182 55l-47 -202q37 -16 73.5 -26.5
t71.5 -17.5v-44h184v53q76 18 123 77q46 59 46 139z" />
    <glyph glyph-name="percent" unicode="%" horiz-adv-x="804" 
d="M743 176q0 77 -36 130q-41 59 -115 59q-70 0 -109 -61q-34 -52 -34 -126q0 -75 35 -127q40 -58 113 -58q75 0 113 56q33 49 33 127zM647 664l-59 39l-438 -689l59 -36zM354 509q0 77 -36 130q-41 59 -115 59q-70 0 -109 -61q-34 -52 -34 -126q0 -75 36 -127
q41 -59 113 -59q74 0 112 57q33 49 33 127zM633 176q0 -73 -37 -73t-37 70q0 86 36 86q38 0 38 -83zM244 509q0 -73 -36 -73q-38 0 -38 69q0 87 37 87t37 -83z" />
    <glyph glyph-name="ampersand" unicode="&#x26;" horiz-adv-x="631" 
d="M617 448h-61v63l-194 -47l4 -20q-15 -4 -51 -4q-77 0 -77 42q0 18 14 30t32 12q29 0 67 -24l93 144q-19 10 -32 16t-21 9q-60 25 -119 25q-89 0 -150 -49q-67 -52 -67 -139q0 -95 78 -141q-107 -45 -107 -165q0 -92 64 -150q55 -50 120 -50h340v254h26zM357 173h-39
q-81 0 -81 53q0 25 17.5 39.5t43.5 14.5h59v-107z" />
    <glyph glyph-name="quotesingle" unicode="'" horiz-adv-x="214" 
d="M176 685h-137l-26 -229h137z" />
    <glyph glyph-name="parenleft" unicode="(" horiz-adv-x="329" 
d="M323 711h-206q-35 -75 -59 -167q-26 -101 -26 -174q0 -108 18 -190q8 -37 23.5 -81.5t37.5 -98.5h208q-79 185 -79 332q0 160 83 379z" />
    <glyph glyph-name="parenright" unicode=")" horiz-adv-x="329" 
d="M294 368q0 164 -75 343h-208q77 -192 77 -323q0 -198 -81 -388h206q25 55 40.5 99.5t23.5 79.5q17 79 17 189z" />
    <glyph glyph-name="asterisk" unicode="*" horiz-adv-x="400" 
d="M379 500l-30 126l-124 -69l36 136l-123 -1l40 -136l-118 79l-39 -119h143l-114 -85l94 -74l56 128l37 -134l103 62l-101 87h140z" />
    <glyph glyph-name="plus" unicode="+" 
d="M509 244v92h-165v164h-95v-164h-170v-92h170v-184h95v184h165z" />
    <glyph glyph-name="comma" unicode="," horiz-adv-x="280" 
d="M258 100q0 24 -9 44t-24.5 35t-37 23t-45.5 8t-45 -8t-36.5 -23t-24.5 -35t-9 -44q0 -31 23 -57.5t54 -35.5q-2 -16 -7 -34t-12 -39l11 -9q64 10 113 61q49 49 49 114z" />
    <glyph glyph-name="hyphen" unicode="-" horiz-adv-x="340" 
d="M324 227v130h-310v-130h310z" />
    <glyph glyph-name="period" unicode="." horiz-adv-x="280" 
d="M257 95q0 47 -34 81t-81 34q-24 0 -45 -9t-36 -24.5t-24 -36.5t-9 -45t9 -45t24 -36t36 -24t45 -9q46 0 81 33q34 34 34 81z" />
    <glyph glyph-name="slash" unicode="/" horiz-adv-x="502" 
d="M489 684h-110l-366 -684h112z" />
    <glyph glyph-name="zero" unicode="0" 
d="M580 338q0 149 -70 247q-80 113 -222 113q-134 0 -210 -115q-67 -100 -67 -240q0 -146 68 -244q78 -110 219 -110q142 0 217 107q65 95 65 242zM366 338q0 -58 -9 -88q-15 -50 -61 -50q-72 0 -72 132q0 164 70 164q72 0 72 -158z" />
    <glyph glyph-name="one" unicode="1" 
d="M409 0v684h-212l-49 -208h48v-476h213z" />
    <glyph glyph-name="two" unicode="2" 
d="M553 220h-146l89 152q28 47 28 104q0 99 -67 160t-167 61q-103 0 -173 -64q-73 -64 -73 -167q0 -51 24 -97l176 52q-6 10 -6 22q0 19 13.5 31t32.5 12q29 0 29 -33q0 -20 -8 -34l-246 -419h432z" />
    <glyph glyph-name="three" unicode="3" 
d="M530 200q0 47 -28 93q-27 46 -69 64q74 74 74 156q0 91 -73 140q-65 42 -159 42q-70 0 -118 -13l-55 -205q55 18 109 18q67 0 67 -38q0 -30 -23 -30h-103l-47 -157h90q104 0 104 -40q0 -42 -59 -42q-45 0 -135 44l-53 -191q94 -49 220 -49q111 0 179 47q79 55 79 161z
" />
    <glyph glyph-name="four" unicode="4" 
d="M598 306h-82v122l-213 -42v-86h-66l249 384h-268l-204 -343v-234h289v-107h213v107h32z" />
    <glyph glyph-name="five" unicode="5" 
d="M531 220q0 109 -63.5 170t-172.5 61v33h143l53 200h-397v-398h154q27 0 46 -10q25 -12 25 -36q0 -26 -21.5 -41.5t-48.5 -15.5q-34 0 -101 52l-112 -169q109 -76 237 -76q115 0 192 78q66 69 66 152z" />
    <glyph glyph-name="six" unicode="6" 
d="M578 254q0 94 -56 156q-51 57 -149 77l115 197h-249l-177 -316q-34 -61 -34 -130q0 -117 85 -184q79 -63 197 -63t193 72q75 73 75 191zM362 253q0 -26 -17 -42t-44 -16q-24 0 -39.5 14.5t-15.5 38.5q0 25 16.5 44t41.5 19q23 0 40.5 -17.5t17.5 -40.5z" />
    <glyph glyph-name="seven" unicode="7" 
d="M533 684h-371l-61 -205h144l-146 -479h224z" />
    <glyph glyph-name="eight" unicode="8" 
d="M552 225q0 95 -74 154q41 47 41 121q0 87 -61 142q-61 53 -147 53q-93 0 -156 -57q-66 -59 -66 -151q0 -62 48 -116q-83 -66 -83 -160q0 -78 61 -145q69 -76 172 -76q114 0 187 59q78 64 78 176zM355 483q0 -52 -50 -52q-20 0 -36 14t-16 33q0 23 15.5 38t38.5 15
q18 0 33 -15t15 -33zM358 231q0 -21 -15 -36t-36 -15q-19 0 -36 15.5t-17 34.5q0 20 15.5 37.5t35.5 17.5q22 0 37.5 -16t15.5 -38z" />
    <glyph glyph-name="nine" unicode="9" 
d="M579 446q0 108 -80 179q-77 68 -186 68q-137 0 -216 -87q-68 -74 -68 -176q0 -194 206 -235l-115 -195h249l177 316q33 58 33 130zM362 435q0 -27 -16 -45t-43 -18q-23 0 -40 16.5t-17 39.5q0 24 18.5 42.5t42.5 18.5q23 0 39 -15.5t16 -38.5z" />
    <glyph glyph-name="colon" unicode=":" horiz-adv-x="280" 
d="M257 399q0 47 -34 81t-81 34q-24 0 -45 -9t-36 -24.5t-24 -36.5t-9 -45t9 -45t24 -36.5t36 -24.5t45 -9q47 0 81 34t34 81zM257 95q0 47 -34 81t-81 34q-24 0 -45 -9t-36 -24.5t-24 -36.5t-9 -45t9 -45t24 -36t36 -24t45 -9q46 0 81 33q34 34 34 81z" />
    <glyph glyph-name="semicolon" unicode=";" horiz-adv-x="280" 
d="M257 399q0 47 -34 81t-81 34q-24 0 -45 -9t-36 -24.5t-24 -36.5t-9 -45t9 -45t24 -36.5t36 -24.5t45 -9q47 0 81 34t34 81zM258 100q0 24 -9 44t-24.5 35t-37 23t-45.5 8t-45 -8t-36.5 -23t-24.5 -35t-9 -44q0 -31 23 -57.5t54 -35.5q-2 -16 -7 -34t-12 -39l11 -9
q64 10 113 61q49 49 49 114z" />
    <glyph glyph-name="less" unicode="&#x3c;" 
d="M501 184l-222 135l222 129l-64 104l-366 -236l366 -236z" />
    <glyph glyph-name="equal" unicode="=" 
d="M559 405v101h-514v-101h514zM559 126v102h-514v-102h514z" />
    <glyph glyph-name="greater" unicode="&#x3e;" 
d="M521 316l-366 236l-64 -104l222 -129l-222 -135l64 -104z" />
    <glyph glyph-name="question" unicode="?" horiz-adv-x="455" 
d="M434 467q0 104 -69 166q-70 62 -174 62q-123 0 -203 -77l114 -146q44 32 84 32q25 0 43.5 -16.5t18.5 -41.5t-17.5 -39.5t-42.5 -14.5q-34 0 -63 10v-146q36 -14 80 -14q101 0 165 62q64 61 64 163zM310 98q0 25 -9.5 46.5t-26 36.5t-38.5 23.5t-48 8.5q-23 0 -42.5 -9
t-34 -24t-23 -35t-8.5 -42q0 -24 9 -44.5t24 -35.5t36 -23.5t45 -8.5q49 0 82.5 29.5t33.5 77.5z" />
    <glyph glyph-name="at" unicode="@" horiz-adv-x="654" 
d="M624 266q0 124 -76 194q-77 72 -199 72q-127 0 -215 -64q-64 -46 -102 -127q-35 -78 -35 -159q0 -156 104 -243q98 -83 257 -83q90 0 168 38v77q-70 -26 -154 -26q-117 0 -190 52q-84 58 -84 170q0 102 55 179q67 96 195 96q181 0 181 -192q0 -71 -20 -140h-35v250h-193
q-142 0 -142 -166q0 -68 56 -132q56 -62 124 -62h155q77 0 118 96q32 76 32 170zM353 94q-43 8 -71 38t-28 73q0 59 51 59h48v-170z" />
    <glyph glyph-name="A" unicode="A" horiz-adv-x="646" 
d="M667 0l-194 684h-340l-67 -184h48l-134 -500h219l28 95h194l19 -95h227zM378 275h-107l53 203z" />
    <glyph glyph-name="B" unicode="B" horiz-adv-x="612" 
d="M584 181q0 65 -24 106q-22 36 -79 75q87 51 87 154q0 74 -50 121t-124 47h-353l-47 -200h47v-484h345q83 0 138 49q60 51 60 132zM358 460q0 -40 -64 -40h-47v80h39q72 0 72 -40zM352 239q0 -48 -58 -48h-47v92h34q71 0 71 -44z" />
    <glyph glyph-name="C" unicode="C" horiz-adv-x="634" 
d="M620 649l-172 65l-14 -23q-23 4 -44 5.5t-40 1.5q-152 0 -252 -127q-86 -109 -86 -227q0 -149 107 -251q107 -101 256 -101q141 0 237 87l-95 196q-68 -68 -135 -68q-32 0 -58.5 11t-46 30.5t-30.5 46.5t-11 59q0 56 44 95q45 39 102 39q30 0 73 -20q39 -19 65 -42z" />
    <glyph glyph-name="D" unicode="D" horiz-adv-x="621" 
d="M608 346q0 145 -89 242q-89 96 -234 96h-244l-47 -204h47v-480h201q160 0 261 92q105 96 105 254zM390 342q0 -60 -37.5 -93.5t-97.5 -33.5v264q63 0 99 -37t36 -100z" />
    <glyph glyph-name="E" unicode="E" horiz-adv-x="532" 
d="M525 711h-191l-9 -27h-284l-47 -207h47v-477h410l51 214h-247v42h205l46 176h-251v39h215z" />
    <glyph glyph-name="F" unicode="F" horiz-adv-x="512" 
d="M526 711h-195l-9 -27h-281l-47 -201h47v-483h214v229h184l47 193h-231v49h213z" />
    <glyph glyph-name="G" unicode="G" horiz-adv-x="746" 
d="M733 383l-3 41h-320l-46 -177h110q-33 -48 -93 -48q-66 0 -109 37q-44 38 -44 102q0 61 40 101q41 41 102 41q36 0 81 -19q10 -4 37 -18l153 162l-150 79l-13 -12q-47 27 -114 27q-127 0 -233 -94q-119 -104 -119 -256q0 -157 105 -259q106 -101 263 -101q146 0 250 110
t104 257v13q0 7 -1 14z" />
    <glyph glyph-name="H" unicode="H" horiz-adv-x="655" 
d="M620 0v684h-213v-228h-152v228h-214l-47 -201h47v-483h214v238h152v-238h213z" />
    <glyph glyph-name="I" unicode="I" horiz-adv-x="288" 
d="M254 0v684h-211l-49 -202h47v-482h213z" />
    <glyph glyph-name="J" unicode="J" horiz-adv-x="400" 
d="M366 224v460h-316l-49 -203h152v-211q0 -70 -52 -70q-30 0 -61 25l-52 -197q62 -37 131 -37q108 0 177 63q70 63 70 170z" />
    <glyph glyph-name="K" unicode="K" horiz-adv-x="612" 
d="M633 0l-198 358l182 326h-230l-132 -230v230h-214l-47 -201h47v-483h214v240l132 -240h246z" />
    <glyph glyph-name="L" unicode="L" horiz-adv-x="386" 
d="M399 213h-144v471h-214l-47 -205h47v-479h309z" />
    <glyph glyph-name="M" unicode="M" horiz-adv-x="740" 
d="M705 0v684h-210l-114 -144l-124 144h-216l-47 -209h47v-475h214v370l129 -136l122 147v-381h199z" />
    <glyph glyph-name="N" unicode="N" horiz-adv-x="655" 
d="M620 0v684h-213v-234l-149 234h-217l-47 -184h47v-500h214v305l193 -305h172z" />
    <glyph glyph-name="O" unicode="O" horiz-adv-x="760" 
d="M748 329q0 154 -104 261t-258 107q-166 0 -276 -113q-98 -101 -98 -228q0 -165 105 -265q107 -101 271 -101q162 0 268 115q92 101 92 224zM518 343q0 -29 -10 -54t-28 -43t-42.5 -28.5t-53.5 -10.5q-31 0 -57.5 10t-45.5 28.5t-30 44t-11 56.5q0 59 42 97q44 38 102 38
q59 0 96 -40q38 -41 38 -98z" />
    <glyph glyph-name="P" unicode="P" horiz-adv-x="565" 
d="M558 413q0 120 -72 195q-72 76 -191 76h-254l-47 -203h47v-481h214v149h66q103 0 172 82q65 79 65 182zM346 416q0 -25 -12 -44q-13 -22 -37 -22h-41v125h47q21 0 32 -18.5t11 -40.5z" />
    <glyph glyph-name="Q" unicode="Q" horiz-adv-x="749" 
d="M736 354q0 127 -97 230q-107 113 -265 113q-156 0 -259 -100q-104 -101 -104 -254q0 -154 104 -255q106 -101 259 -101q93 0 182 48l41 -43l131 119l-48 42q56 88 56 201zM513 347l-1 -27l-34 34l-119 -108l38 -40q-4 -2 -6 -2q-5 -1 -23 -1q-55 0 -98 41q-42 42 -42 98
q0 57 44 98t102 41q56 0 98 -39q43 -38 41 -95z" />
    <glyph glyph-name="R" unicode="R" horiz-adv-x="616" 
d="M603 0l-119 221q112 73 112 216q0 109 -70 178q-69 69 -178 69h-307l-47 -201h47v-483h214v202l92 -202h256zM379 427q0 -55 -73 -55h-51v113h51q73 0 73 -58z" />
    <glyph glyph-name="S" unicode="S" horiz-adv-x="549" 
d="M528 222q0 97 -72 153q-39 30 -131 62q-71 24 -71 44q0 32 48 32q27 0 80 -18q47 -16 77 -33l61 217l-180 35l-7 -22q-17 2 -28.5 3t-17.5 1h-32q-102 0 -165 -54q-67 -57 -67 -157q0 -98 73 -153q41 -30 134 -61q72 -24 72 -48q0 -32 -45 -32q-39 0 -93 21l-89 39
l-54 -198q120 -66 239 -66q114 0 188 59q80 65 80 176z" />
    <glyph glyph-name="T" unicode="T" horiz-adv-x="494" 
d="M508 711h-194l-6 -27h-274l-46 -202h125l1 -482h212v479h126z" />
    <glyph glyph-name="U" unicode="U" horiz-adv-x="637" 
d="M603 243v441h-213v-415q0 -68 -71 -68q-27 0 -45.5 15t-18.5 41v427h-214l-47 -202h47v-252q0 -90 61 -158q74 -83 210 -83q126 0 205 62q86 68 86 192z" />
    <glyph glyph-name="V" unicode="V" 
d="M621 684h-219l-110 -344l-95 344h-217l207 -684h196z" />
    <glyph glyph-name="W" unicode="W" horiz-adv-x="836" 
d="M849 684h-210l-51 -291l-79 291h-178l-77 -296l-56 296h-210l138 -684h225l73 290l72 -290h224z" />
    <glyph glyph-name="X" unicode="X" horiz-adv-x="622" 
d="M643 0l-201 355l181 329h-235l-82 -149l-70 149h-238l180 -329l-198 -355h222l106 197l100 -197h235z" />
    <glyph glyph-name="Y" unicode="Y" horiz-adv-x="560" 
d="M588 684h-237l-70 -149l-67 149h-241l205 -376v-308h212v308z" />
    <glyph glyph-name="Z" unicode="Z" horiz-adv-x="485" 
d="M471 684h-406l-54 -206h163l-167 -478h406l54 209h-162z" />
    <glyph glyph-name="bracketleft" unicode="[" horiz-adv-x="348" 
d="M321 -178v56h-124v743h124v56h-297v-855h297z" />
    <glyph glyph-name="backslash" unicode="\" horiz-adv-x="552" 
d="M547 2l-421 646h-107l424 -646h104z" />
    <glyph glyph-name="bracketright" unicode="]" horiz-adv-x="367" 
d="M325 -178v855h-303v-56h121v-740h-121v-59h303z" />
    <glyph glyph-name="asciicircum" unicode="^" horiz-adv-x="342" 
d="M328 347l-55 114h-211l-45 -114h117l33 50l36 -50h125z" />
    <glyph glyph-name="underscore" unicode="_" horiz-adv-x="536" 
d="M543 0v34h-549v-34h549z" />
    <glyph glyph-name="grave" unicode="`" horiz-adv-x="300" 
d="M270 658l-71 133h-193l119 -133h145z" />
    <glyph glyph-name="a" unicode="a" horiz-adv-x="594" 
d="M600 192h-48v308h-174l-8 -23q-50 32 -113 32q-109 0 -177 -74q-67 -73 -67 -185q0 -115 78 -185q77 -70 194 -65h24l43 70v-70h200zM352 193h-51q-80 0 -80 62q0 27 21 47.5t48 20.5q22 0 42 -14.5t20 -35.5v-80z" />
    <glyph glyph-name="b" unicode="b" horiz-adv-x="598" 
d="M585 245q0 118 -71 189q-70 70 -190 70h-34l-50 -95v302h-199l-47 -191h47v-520h174l27 34q40 -36 99 -36q108 0 176 69q68 70 68 178zM382 252q0 -31 -18.5 -53t-48.5 -22q-75 0 -75 113l2 21q13 2 26 3.5t27 1.5q34 0 58 -15q29 -17 29 -49z" />
    <glyph glyph-name="c" unicode="c" horiz-adv-x="386" 
d="M379 490q-49 20 -99 20q-103 0 -184 -72q-84 -75 -84 -176q0 -122 77 -196t200 -74q24 0 77 9l-37 177q-15 -4 -40 -4q-82 0 -82 67q0 37 23 57.5t61 20.5q19 0 40 -12z" />
    <glyph glyph-name="d" unicode="d" horiz-adv-x="589" 
d="M595 192h-47v519h-194l-43 -191h37v-30q-50 15 -99 15q-102 0 -170 -74q-67 -73 -67 -178q0 -119 81 -194q64 -59 125 -59h95l35 85v-85h200zM348 231q0 -16 -3 -43l-17 -1q-118 -7 -118 70q0 32 20 51.5t52 19.5q66 0 66 -97z" />
    <glyph glyph-name="e" unicode="e" horiz-adv-x="544" 
d="M533 209v26q0 116 -73 195q-74 80 -188 80q-115 0 -188 -70q-72 -71 -72 -184q0 -132 104 -201q89 -59 228 -59q18 0 47 2.5t70 7.5l46 174q-107 -23 -151 -23q-94 0 -122 52h299zM331 308h-125q0 28 18 44.5t46 16.5q27 0 44 -17t17 -44z" />
    <glyph glyph-name="f" unicode="f" horiz-adv-x="323" 
d="M336 711h-123q-163 0 -163 -153v-58h-16l-46 -187h61v-313h199v313h38l48 187h-94q0 40 37 40l16 -2z" />
    <glyph glyph-name="g" unicode="g" horiz-adv-x="575" 
d="M541 15v485h-183l-13 -16q-35 26 -83 26q-110 0 -180 -76q-69 -75 -69 -186q0 -108 63 -164t172 -56h57l39 73v-49q0 -62 -91 -62q-78 0 -159 37l-37 -152q57 -31 110 -42q45 -9 118 -9q256 0 256 191zM342 198q-2 0 -12 -2h-25q-92 0 -92 61q0 29 17 47.5t46 18.5
q66 0 66 -67v-58z" />
    <glyph glyph-name="h" unicode="h" horiz-adv-x="572" 
d="M578 192h-47v161q0 62 -36 104q-36 43 -97 43h-117l-41 -76v287h-194l-52 -191h47v-520h199v310q8 2 9 2q5 1 21 1q61 0 61 -40v-273h200z" />
    <glyph glyph-name="i" unicode="i" horiz-adv-x="282" 
d="M289 711h-201l-44 -170h199zM289 192h-48v308h-199l-48 -187h47v-313h200z" />
    <glyph glyph-name="j" unicode="j" horiz-adv-x="279" 
d="M296 711h-202l-44 -170h199zM244 -18v518h-199l-47 -186h47v-288q0 -38 -36 -36l-19 1l-37 -154h129q71 0 114 37q48 40 48 108z" />
    <glyph glyph-name="k" unicode="k" horiz-adv-x="536" 
d="M550 0l-144 274l120 226h-210l-76 -151v362h-199l-47 -191h47v-520h199v199l90 -199h220z" />
    <glyph glyph-name="l" unicode="l" horiz-adv-x="282" 
d="M289 192h-49v519h-185l-61 -191h47v-520h199z" />
    <glyph glyph-name="m" unicode="m" horiz-adv-x="855" 
d="M862 192h-48v163q0 61 -34 101q-36 44 -96 44h-117l-45 -98q-16 39 -51 67q-38 31 -78 31h-120l-39 -93v93h-193l-47 -181h47v-319h193v311q8 2 9 2q22 5 27 5q10 0 21 -4t20 -11t14.5 -16t5.5 -18v-269h193v309q24 6 36 6q62 0 62 -45v-270h192z" />
    <glyph glyph-name="n" unicode="n" horiz-adv-x="565" 
d="M572 192h-48v169q0 139 -140 139h-110l-40 -87v87h-193l-47 -187h47v-313h193v307q34 8 43 8q54 0 54 -39v-276h193z" />
    <glyph glyph-name="o" unicode="o" horiz-adv-x="564" 
d="M550 250q0 113 -78 185t-192 72q-113 0 -189 -72q-79 -73 -79 -186q0 -114 76 -187t190 -73q116 0 194 72q78 73 78 189zM353 249q0 -77 -69 -77q-16 0 -30.5 5.5t-26 15t-18 23t-6.5 28.5q0 31 22.5 54.5t53.5 23.5q32 0 53 -20.5t21 -52.5z" />
    <glyph glyph-name="p" unicode="p" horiz-adv-x="606" 
d="M593 243q0 103 -57 177q-62 80 -162 80h-89l-45 -81v81h-199l-47 -183h47v-480h199v171q8 -2 14.5 -4t11.5 -3q16 -2 31.5 -3.5t31.5 -1.5q116 0 190 65q74 66 74 182zM386 244q0 -69 -61 -69q-85 0 -85 88v44l49 3q97 6 97 -66z" />
    <glyph glyph-name="q" unicode="q" horiz-adv-x="594" 
d="M599 33h-48v467h-185l-9 -24q-43 34 -99 34q-104 0 -176 -69q-71 -69 -71 -173q0 -143 101 -217q83 -59 173 -53l31 2l35 112v-275h200zM351 194q-20 -5 -46 -5q-97 0 -97 71q0 31 19 50t50 19q74 0 74 -92v-43z" />
    <glyph glyph-name="r" unicode="r" horiz-adv-x="369" 
d="M390 509l-18 1q-35 1 -75 -15q-42 -16 -62 -44v49h-194l-47 -188h47v-312h194v209q0 17 4.5 33t13.5 28.5t22 20t29 7.5t28 -4z" />
    <glyph glyph-name="s" unicode="s" horiz-adv-x="418" 
d="M406 157q0 57 -48 95q-32 24 -89 46q-48 18 -48 29q0 21 26 21q34 0 90 -41l47 147q-91 53 -185 53q-40 0 -73.5 -11.5t-57.5 -33.5t-37 -53.5t-13 -70.5q0 -59 47 -97q30 -24 88 -44q47 -17 47 -25q0 -25 -31 -25q-35 0 -111 46l-41 -161q113 -40 195 -40q84 0 136 40
q58 43 58 125z" />
    <glyph glyph-name="t" unicode="t" horiz-adv-x="308" 
d="M329 500h-82v116l-199 -49v-67h-21l-47 -187h68v-313h199v313h35z" />
    <glyph glyph-name="u" unicode="u" horiz-adv-x="566" 
d="M573 192h-48v308h-192v-308h-44q-55 0 -55 67v241h-193l-47 -181h47v-167q0 -66 42 -109t107 -43h93l50 96v-96h192z" />
    <glyph glyph-name="v" unicode="v" horiz-adv-x="488" 
d="M509 500h-206l-53 -272l-61 272h-209l145 -500h231z" />
    <glyph glyph-name="w" unicode="w" horiz-adv-x="794" 
d="M815 500h-215l-50 -247l-76 247h-154l-71 -247l-62 247h-207l161 -500h192l63 220l62 -220h192z" />
    <glyph glyph-name="x" unicode="x" horiz-adv-x="574" 
d="M588 0l-169 265l147 235h-225l-56 -114l-49 114h-240l153 -238l-161 -262h234l67 137l74 -137h225z" />
    <glyph glyph-name="y" unicode="y" horiz-adv-x="563" 
d="M529 18v482h-192v-301q-13 -5 -35 -5q-65 0 -65 62v244h-196l-47 -197h47v-159q0 -58 43 -86q38 -26 97 -26h115l41 75v-49q0 -69 -90 -69q-75 0 -162 35l-39 -158q102 -41 224 -41q119 0 181 36q78 46 78 157z" />
    <glyph glyph-name="z" unicode="z" horiz-adv-x="383" 
d="M369 192h-101l101 308h-303l-46 -188h93l-106 -312h313z" />
    <glyph glyph-name="braceleft" unicode="{" horiz-adv-x="312" 
d="M293 -176v77h-63q-14 0 -14 23v316q0 52 -63 81q63 28 63 95v307q0 24 14 24h63v73h-116q-42 0 -66 -29t-24 -72v-313q0 -55 -67 -68v-37q67 -19 67 -82v-295q0 -100 66 -100h140z" />
    <glyph glyph-name="bar" unicode="|" horiz-adv-x="183" 
d="M141 -115v832h-92v-832h92z" />
    <glyph glyph-name="braceright" unicode="}" horiz-adv-x="312" 
d="M291 304v37q-66 13 -66 68v313q0 42 -24.5 71.5t-66.5 29.5h-116v-73h63q14 0 14 -24v-307q0 -68 63 -95q-63 -29 -63 -81v-316q0 -23 -14 -23h-63v-77h140q67 0 67 100v295q0 62 66 82z" />
    <glyph glyph-name="asciitilde" unicode="~" horiz-adv-x="410" 
d="M398 422h-91q0 -11 -8 -20.5t-19 -9.5q-32 14 -51 23t-27 12q-48 19 -83 19q-50 0 -78 -46q-24 -38 -24 -91h85q3 13 5 17q7 16 22 16q21 0 77 -27q57 -26 80 -26q50 0 80 43q24 33 32 90z" />
    <glyph glyph-name="exclamdown" unicode="&#xa1;" horiz-adv-x="308" 
d="M261 582q0 49 -32.5 80t-81.5 31q-51 0 -83 -30.5t-32 -81.5q0 -52 32.5 -81.5t86.5 -29.5q48 0 79 32t31 80zM293 182h-42v247h-211v-430h202z" />
    <glyph glyph-name="cent" unicode="&#xa2;" horiz-adv-x="391" 
d="M378 495q-36 16 -69 16v70h-130v-87q-159 -78 -159 -237q0 -78 42 -145q45 -69 112 -103v-75h135v55q34 5 64 19l-45 184q-16 -13 -44 -13q-15 0 -28.5 6t-24 16t-16.5 23t-6 28q0 30 20.5 50.5t50.5 20.5q23 0 53 -11z" />
    <glyph glyph-name="sterling" unicode="&#xa3;" horiz-adv-x="624" 
d="M611 54l-46 181q-68 -44 -142 -44q-12 0 -88 17q-20 5 -36 8.5t-29 7.5l33 52h88v142l-106 5q-14 2 -14 23q0 63 82 63q41 0 110 -39q11 -6 25.5 -15.5t33.5 -22.5l68 246l-180 33l-10 -26q-18 2 -29 2.5t-16 1.5q-25 2 -42.5 3t-28.5 1q-89 0 -156 -51q-73 -55 -73 -141
q0 -35 12 -68h-36v-156l29 2q3 0 36 -3q4 -1 6 -1h4q-11 -71 -85 -102q5 -22 9.5 -39t7.5 -28q11 -38 19 -65.5t15 -43.5q46 36 106 36q39 0 116 -21q76 -21 116 -21q109 0 201 63z" />
    <glyph glyph-name="currency" unicode="&#xa4;" horiz-adv-x="696" 
d="M611 174l-32 32q32 59 32 124t-32 124l32 32l-99 99l-32 -32q-59 32 -124 32q-68 0 -124 -32l-32 32l-99 -99l32 -32q-32 -59 -32 -124q0 -68 32 -124l-32 -32l99 -99l32 32q59 -32 124 -32t124 32l32 -32zM486 330q0 -54 -38 -92t-92 -38t-92 38t-38 92t38 92t92 38
t92 -38t38 -92z" />
    <glyph glyph-name="yen" unicode="&#xa5;" horiz-adv-x="574" 
d="M595 684h-237l-71 -149l-67 149h-240l205 -376v-30h-140v-54h141v-27h-141v-53h140v-144h211v143h141v55h-142v25h143v56h-142v29z" />
    <glyph glyph-name="brokenbar" unicode="&#xa6;" horiz-adv-x="183" 
d="M141 364v353h-92v-353h92zM141 -115v352h-92v-352h92z" />
    <glyph glyph-name="section" unicode="&#xa7;" horiz-adv-x="637" 
d="M608 260q0 96 -89 152q-41 25 -165 66q-89 29 -89 59q0 14 21 25q16 9 33 9q31 0 63 -21q31 -21 36 -50h173q0 98 -91 150q-77 44 -180 44q-101 0 -175 -38q-93 -48 -93 -140q0 -68 46 -114q-72 -47 -72 -142q0 -94 89 -150q42 -26 165 -67q89 -29 89 -58q0 -37 -61 -37
q-42 0 -67 23t-25 65h-176l-1 -15q-6 -96 89 -150q79 -44 182 -44q112 0 182 38q88 48 88 151q0 59 -42 97q70 51 70 147zM418 230q0 -33 -18 -51l-142 53q-40 15 -40 54q0 25 26 51l124 -47q50 -20 50 -60z" />
    <glyph glyph-name="dieresis" unicode="&#xa8;" horiz-adv-x="530" 
d="M500 716q0 34 -33 57q-29 21 -65 21q-38 0 -66 -19q-34 -22 -34 -57t32 -58q28 -19 66 -19q37 0 66 19q34 22 34 56zM250 716q0 34 -33 57q-29 21 -65 21q-38 0 -66 -19q-34 -22 -34 -57t32 -58q28 -19 66 -19q37 0 66 19q34 22 34 56z" />
    <glyph glyph-name="copyright" unicode="&#xa9;" horiz-adv-x="620" 
d="M593 382q0 118 -80 198t-198 80q-119 0 -199 -80q-79 -79 -79 -198t79 -198t199 -79q119 0 198 79q80 80 80 198zM529 382q0 -90 -62 -152q-62 -60 -152 -60q-92 0 -153 60q-61 61 -61 152q0 92 61 153t153 61t153 -61t61 -153zM435 515l-76 29l-6 -10l-37 3
q-63 4 -112 -57q-38 -49 -38 -100q0 -66 47 -111q48 -45 114 -45q60 0 104 39l-42 87q-29 -30 -59 -30q-29 0 -47 18t-18 47q0 24 20.5 41.5t44.5 17.5q32 0 61 -28z" />
    <glyph glyph-name="ordfeminine" unicode="&#xaa;" horiz-adv-x="395" 
d="M385 498h-31v200h-113l-5 -15q-32 21 -74 21q-71 0 -114 -49q-44 -50 -44 -120q0 -75 51 -121q51 -47 125 -42l16 1l28 45v-45h130zM380 244v92h-361v-92h361zM224 498h-33q-52 0 -52 41q0 17 14 30.5t31 13.5q15 0 27.5 -9.5t12.5 -23.5v-52z" />
    <glyph glyph-name="guillemotleft" unicode="&#xab;" horiz-adv-x="364" 
d="M343 54l-142 217l123 182l-128 83l-175 -265l191 -298zM583 54l-142 217l123 182l-128 83l-175 -265l191 -298z" />
    <glyph glyph-name="logicalnot" unicode="&#xac;" horiz-adv-x="1016" 
d="M665 101h158v402h-632v-158h474v-244z" />
    <glyph glyph-name="registered" unicode="&#xae;" horiz-adv-x="620" 
d="M593 382q0 118 -80 198t-198 80q-119 0 -199 -80q-79 -79 -79 -198t79 -198t199 -79q119 0 198 79q80 80 80 198zM529 382q0 -90 -62 -152q-62 -60 -152 -60q-92 0 -153 60q-61 61 -61 152q0 92 61 153t153 61t153 -61t61 -153zM445 235l-52 100q49 33 49 98q0 48 -30 80
t-78 32h-135l-21 -91h21v-219h94v92l40 -92h112zM347 429q0 -25 -32 -25h-22v51h22q32 0 32 -26z" />
    <glyph glyph-name="macron" unicode="&#xaf;" horiz-adv-x="343" 
d="M343 559v102h-343v-102h343z" />
    <glyph glyph-name="degree" unicode="&#xb0;" horiz-adv-x="246" 
d="M226 605q0 42 -28 70t-70 28q-20 0 -37.5 -8t-31 -21.5t-21.5 -31t-8 -37.5q0 -43 27.5 -70.5t70.5 -27.5q42 0 70 28t28 70zM172 605q0 -18 -13 -31t-31 -13q-19 0 -31.5 12.5t-12.5 31.5q0 17 13.5 30.5t30.5 13.5q19 0 31.5 -12.5t12.5 -31.5z" />
    <glyph glyph-name="plusminus" unicode="&#xb1;" 
d="M502 256v105h-162v129h-104v-129h-161v-105h161v-127h104v127h162zM502 -13v103h-427v-103h427z" />
    <glyph glyph-name="twosuperior" unicode="&#xb2;" horiz-adv-x="365" 
d="M337 498h-88l54 76q16 22 16 52q0 52 -45 84q-39 27 -95 27t-99 -29q-49 -33 -49 -87q0 -26 15 -48l105 26l-3 11q0 21 27 21q18 0 18 -16q0 -9 -5 -17l-148 -210h260z" />
    <glyph glyph-name="threesuperior" unicode="&#xb3;" horiz-adv-x="345" 
d="M318 492q0 25 -17 47t-41 32q44 38 44 78q0 48 -48 72q-37 19 -91 19q-44 0 -71 -7l-33 -102q36 9 66 9q40 0 40 -19q0 -15 -14 -15h-62l-28 -79h54q62 0 62 -20q0 -21 -35 -21q-30 0 -81 22l-32 -95q57 -26 132 -26q61 0 102 22q53 29 53 83z" />
    <glyph glyph-name="acute" unicode="&#xb4;" horiz-adv-x="300" 
d="M297 791h-178l-89 -130h140z" />
    <glyph glyph-name="mu" unicode="&#xb5;" horiz-adv-x="612" 
d="M581 319l-48 181h-193v-241q0 -67 -55 -67h-44v308h-192v-496h-44l44 -141h192v233l50 -96h93q33 0 60.5 11.5t47 31.5t30.5 48t11 61v167h48z" />
    <glyph glyph-name="paragraph" unicode="&#xb6;" horiz-adv-x="595" 
d="M564 570v145h-393q-169 0 -169 -169q0 -76 46.5 -120t122.5 -44v-491h146v679h65v-679h141v679h41z" />
    <glyph glyph-name="periodcentered" unicode="&#xb7;" horiz-adv-x="280" 
d="M212 284q0 30 -21 51t-51 21t-51 -21t-21 -51t21 -51t51 -21t51 21t21 51z" />
    <glyph glyph-name="periodcentered" unicode="&#x2219;" horiz-adv-x="280" 
d="M212 284q0 30 -21 51t-51 21t-51 -21t-21 -51t21 -51t51 -21t51 21t21 51z" />
    <glyph glyph-name="cedilla" unicode="&#xb8;" horiz-adv-x="634" 
d="M394 -53v34h-143v-176q31 0 57.5 10.5t45.5 29t29.5 44.5t10.5 58z" />
    <glyph glyph-name="onesuperior" unicode="&#xb9;" horiz-adv-x="235" 
d="M181 412v342h-127l-29 -104h29v-238h127z" />
    <glyph glyph-name="ordmasculine" unicode="&#xba;" horiz-adv-x="395" 
d="M372 541q0 74 -52 120q-52 47 -124 47q-75 0 -124 -48q-50 -47 -50 -120t49 -121t124 -48q74 0 126 47q51 48 51 123zM380 244v92h-361v-92h361zM244 540q0 -50 -45 -50q-21 0 -37 13t-16 34t14.5 36t35.5 15q20 0 34 -14t14 -34z" />
    <glyph glyph-name="guillemotright" unicode="&#xbb;" horiz-adv-x="612" 
d="M589 238l-191 298l-131 -82l141 -217l-122 -182l128 -82zM343 238l-191 298l-131 -82l141 -217l-122 -182l128 -82z" />
    <glyph glyph-name="onequarter" unicode="&#xbc;" horiz-adv-x="655" 
d="M641 152h-49v61l-128 -21v-43h-39l149 192h-161l-122 -171v-117h173v-53h128v53h19zM181 412v342h-127l-29 -104h29v-238h127zM487 642l-55 37l-412 -661l55 -35z" />
    <glyph glyph-name="onehalf" unicode="&#xbd;" horiz-adv-x="670" 
d="M634 109h-88l54 76q16 22 16 52q0 52 -45 84q-39 27 -95 27t-99 -29q-49 -33 -49 -87q0 -26 15 -48l105 26l-3 11q0 21 27 21q18 0 18 -16q0 -9 -5 -17l-148 -209h260zM205 412v342h-127l-29 -104h29v-238h127zM490 630l-55 37l-412 -661l55 -35z" />
    <glyph glyph-name="threequarters" unicode="&#xbe;" horiz-adv-x="740" 
d="M699 152h-49v61l-128 -21v-43h-39l149 192h-161l-122 -171v-117h173v-53h128v53h19zM318 492q0 25 -17 47t-41 32q44 38 44 78q0 48 -48 72q-37 19 -91 19q-44 0 -71 -7l-33 -102q36 9 66 9q40 0 40 -19q0 -15 -14 -15h-62l-28 -79h54q62 0 62 -20q0 -21 -35 -21
q-30 0 -81 22l-32 -95q57 -26 132 -26q61 0 102 22q53 29 53 83zM562 638l-55 37l-413 -662l56 -34z" />
    <glyph glyph-name="questiondown" unicode="&#xbf;" horiz-adv-x="455" 
d="M375 582q0 24 -9 44.5t-24 36t-36 24t-45 8.5t-45.5 -8t-37 -22t-24.5 -34t-9 -44q0 -26 9.5 -47t26 -36t38.5 -23.5t48 -8.5q22 0 42 8.5t34.5 23.5t23 35t8.5 43zM468 67l-115 146q-44 -32 -84 -32q-25 0 -43.5 16.5t-18.5 41.5t17.5 39.5t42.5 14.5q34 0 63 -10v146
q-36 14 -80 14q-101 0 -166 -62q-63 -62 -63 -163q0 -103 71 -166q67 -61 172 -61q124 0 204 76z" />
    <glyph glyph-name="Agrave" unicode="&#xc0;" horiz-adv-x="646" 
d="M667 0l-194 684h-340l-67 -184h48l-134 -500h219l28 95h194l19 -95h227zM378 275h-107l53 203zM395 733l-71 133h-193l119 -133h145z" />
    <glyph glyph-name="Aacute" unicode="&#xc1;" horiz-adv-x="646" 
d="M667 0l-194 684h-340l-67 -184h48l-134 -500h219l28 95h194l19 -95h227zM378 275h-107l53 203zM502 861h-178l-89 -130h140z" />
    <glyph glyph-name="Acircumflex" unicode="&#xc2;" horiz-adv-x="646" 
d="M667 0l-194 684h-340l-67 -184h48l-134 -500h219l28 95h194l19 -95h227zM378 275h-107l53 203zM507 737l-119 122h-166l-120 -122h147l58 50l54 -50h146z" />
    <glyph glyph-name="Atilde" unicode="&#xc3;" horiz-adv-x="646" 
d="M667 0l-194 684h-340l-67 -184h48l-134 -500h219l28 95h194l19 -95h227zM378 275h-107l53 203zM509 807l-72 59q-28 -40 -58 -40q-11 0 -92 31q-39 14 -66 14q-65 0 -120 -87l71 -63q11 15 19 23q23 23 42 23t54 -15q70 -30 103 -30q77 0 119 85z" />
    <glyph glyph-name="Adieresis" unicode="&#xc4;" horiz-adv-x="646" 
d="M667 0l-194 684h-340l-67 -184h48l-134 -500h219l28 95h194l19 -95h227zM378 275h-107l53 203zM563 900h-176l-39 -153h175zM326 900h-177l-39 -153h175z" />
    <glyph glyph-name="Aring" unicode="&#xc5;" horiz-adv-x="646" 
d="M667 0l-194 684h-340l-67 -184h48l-134 -500h219l28 95h194l19 -95h227zM378 275h-107l53 203zM446 800q0 45 -42 74q-38 26 -85 26q-49 0 -87 -23q-44 -27 -44 -73q0 -44 44 -73q37 -25 86 -25q47 0 85 23q43 25 43 71zM356 802q0 -40 -38 -40q-40 0 -40 38q0 40 39 40
q16 0 27.5 -11t11.5 -27z" />
    <glyph glyph-name="AE" unicode="&#xc6;" horiz-adv-x="831" 
d="M825 711h-201l-9 -27h-461l-64 -210h40l-150 -474h223l37 87h124v-87h396l50 220h-236v45h195l41 172h-234v45h191zM355 264h-63l63 186v-186z" />
    <glyph glyph-name="Ccedilla" unicode="&#xc7;" horiz-adv-x="634" 
d="M620 649l-172 65l-14 -23q-23 4 -44 5.5t-40 1.5q-152 0 -252 -127q-86 -109 -86 -227q0 -149 107 -251q107 -101 256 -101q141 0 237 87l-95 196q-68 -68 -135 -68q-32 0 -58.5 11t-46 30.5t-30.5 46.5t-11 59q0 56 44 95q45 39 102 39q30 0 73 -20q39 -19 65 -42z
M434 -53v34h-143v-176q31 0 57.5 10.5t45.5 29t29.5 44.5t10.5 58z" />
    <glyph glyph-name="Egrave" unicode="&#xc8;" horiz-adv-x="532" 
d="M525 711h-191l-9 -27h-284l-47 -207h47v-477h410l51 214h-247v42h205l46 176h-251v39h215zM325 734l-71 133h-193l119 -133h145z" />
    <glyph glyph-name="Eacute" unicode="&#xc9;" horiz-adv-x="532" 
d="M525 711h-191l-9 -27h-284l-47 -207h47v-477h410l51 214h-247v42h205l46 176h-251v39h215zM452 863h-178l-89 -130h140z" />
    <glyph glyph-name="Ecircumflex" unicode="&#xca;" horiz-adv-x="532" 
d="M525 711h-191l-9 -27h-284l-47 -207h47v-477h410l51 214h-247v42h205l46 176h-251v39h215zM491 740l-119 122h-166l-120 -122h147l58 50l54 -50h146z" />
    <glyph glyph-name="Edieresis" unicode="&#xcb;" horiz-adv-x="532" 
d="M525 711h-191l-9 -27h-284l-47 -207h47v-477h410l51 214h-247v42h205l46 176h-251v39h215zM503 900h-176l-39 -153h175zM266 900h-177l-39 -153h175z" />
    <glyph glyph-name="Igrave" unicode="&#xcc;" horiz-adv-x="288" 
d="M254 0v684h-211l-49 -202h47v-482h213zM247 733l-71 133h-193l119 -133h145z" />
    <glyph glyph-name="Iacute" unicode="&#xcd;" horiz-adv-x="288" 
d="M254 0v684h-211l-49 -202h47v-482h213zM311 868h-178l-89 -130h140z" />
    <glyph glyph-name="Icircumflex" unicode="&#xce;" horiz-adv-x="288" 
d="M256 0v684h-211l-49 -202h47v-482h213zM353 744l-119 122h-166l-120 -122h147l58 50l54 -50h146z" />
    <glyph glyph-name="Idieresis" unicode="&#xcf;" horiz-adv-x="288" 
d="M254 0v684h-211l-49 -202h47v-482h213zM393 900h-176l-39 -153h175zM156 900h-176l-39 -153h174z" />
    <glyph glyph-name="Eth" unicode="&#xd0;" horiz-adv-x="621" 
d="M608 346q0 145 -89 242q-89 96 -234 96h-244l-47 -204h47v-91h-47v-102h47v-287h201q160 0 261 92q105 96 105 254zM390 342q0 -60 -37.5 -93.5t-97.5 -33.5v72h40v102h-40v90q63 0 99 -37t36 -100z" />
    <glyph glyph-name="Ntilde" unicode="&#xd1;" horiz-adv-x="655" 
d="M620 0v684h-213v-234l-149 234h-217l-47 -184h47v-500h214v305l193 -305h172zM548 816l-72 59q-28 -40 -58 -40q-11 0 -92 31q-39 14 -66 14q-65 0 -120 -87l71 -63q11 15 19 23q23 23 42 23t54 -15q70 -30 103 -30q77 0 119 85z" />
    <glyph glyph-name="Ograve" unicode="&#xd2;" horiz-adv-x="760" 
d="M748 329q0 154 -104 261t-258 107q-166 0 -276 -113q-98 -101 -98 -228q0 -165 105 -265q107 -101 271 -101q162 0 268 115q92 101 92 224zM518 343q0 -29 -10 -54t-28 -43t-42.5 -28.5t-53.5 -10.5q-31 0 -57.5 10t-45.5 28.5t-30 44t-11 56.5q0 59 42 97q44 38 102 38
q59 0 96 -40q38 -41 38 -98zM446 737l-71 133h-193l119 -133h145z" />
    <glyph glyph-name="Oacute" unicode="&#xd3;" horiz-adv-x="760" 
d="M748 329q0 154 -104 261t-258 107q-166 0 -276 -113q-98 -101 -98 -228q0 -165 105 -265q107 -101 271 -101q162 0 268 115q92 101 92 224zM518 343q0 -29 -10 -54t-28 -43t-42.5 -28.5t-53.5 -10.5q-31 0 -57.5 10t-45.5 28.5t-30 44t-11 56.5q0 59 42 97q44 38 102 38
q59 0 96 -40q38 -41 38 -98zM576 873h-178l-89 -130h140z" />
    <glyph glyph-name="Ocircumflex" unicode="&#xd4;" horiz-adv-x="760" 
d="M748 329q0 154 -104 261t-258 107q-166 0 -276 -113q-98 -101 -98 -228q0 -165 105 -265q107 -101 271 -101q162 0 268 115q92 101 92 224zM518 343q0 -29 -10 -54t-28 -43t-42.5 -28.5t-53.5 -10.5q-31 0 -57.5 10t-45.5 28.5t-30 44t-11 56.5q0 59 42 97q44 38 102 38
q59 0 96 -40q38 -41 38 -98zM586 739l-119 122h-166l-120 -122h147l58 50l54 -50h146z" />
    <glyph glyph-name="Otilde" unicode="&#xd5;" horiz-adv-x="760" 
d="M748 329q0 154 -104 261t-258 107q-166 0 -276 -113q-98 -101 -98 -228q0 -165 105 -265q107 -101 271 -101q162 0 268 115q92 101 92 224zM518 343q0 -29 -10 -54t-28 -43t-42.5 -28.5t-53.5 -10.5q-31 0 -57.5 10t-45.5 28.5t-30 44t-11 56.5q0 59 42 97q44 38 102 38
q59 0 96 -40q38 -41 38 -98zM582 810l-72 59q-28 -40 -58 -40q-11 0 -92 31q-39 14 -66 14q-65 0 -120 -87l71 -63q11 15 19 23q23 23 42 23t54 -15q70 -30 103 -30q77 0 119 85z" />
    <glyph glyph-name="Odieresis" unicode="&#xd6;" horiz-adv-x="760" 
d="M748 329q0 154 -104 261t-258 107q-166 0 -276 -113q-98 -101 -98 -228q0 -165 105 -265q107 -101 271 -101q162 0 268 115q92 101 92 224zM518 343q0 -29 -10 -54t-28 -43t-42.5 -28.5t-53.5 -10.5q-31 0 -57.5 10t-45.5 28.5t-30 44t-11 56.5q0 59 42 97q44 38 102 38
q59 0 96 -40q38 -41 38 -98zM643 900h-176l-39 -153h175zM406 900h-177l-39 -153h175z" />
    <glyph glyph-name="multiply" unicode="&#xd7;" 
d="M499 161l-130 130l117 117l-65 65l-117 -117l-116 116l-67 -67l116 -116l-120 -120l65 -65l120 120l130 -130z" />
    <glyph glyph-name="Oslash" unicode="&#xd8;" horiz-adv-x="760" 
d="M747 336q0 179 -144 289l25 39l-59 39l-27 -42q-78 37 -173 37q-149 0 -253 -104t-104 -252q0 -41 10.5 -81t29.5 -77t46 -69t60 -57l-27 -44l59 -36l29 44q70 -33 156 -33q170 0 278 116q94 101 94 231zM517 337q0 -29 -10.5 -53t-29 -41t-43.5 -26.5t-55 -9.5
q2 0 -1.5 0.5t-11.5 1.5l-26 3l143 224q34 -37 34 -99zM423 473l-144 -225q-40 40 -40 97q0 56 43 96t101 40q6 0 40 -8z" />
    <glyph glyph-name="Ugrave" unicode="&#xd9;" horiz-adv-x="637" 
d="M597 243v441h-213v-415q0 -68 -71 -68q-27 0 -45.5 15t-18.5 41v427h-214l-47 -202h47v-252q0 -90 61 -158q74 -83 210 -83q126 0 205 62q86 68 86 192zM402 732l-71 133h-193l119 -133h145z" />
    <glyph glyph-name="Uacute" unicode="&#xda;" horiz-adv-x="637" 
d="M603 243v441h-213v-415q0 -68 -71 -68q-27 0 -45.5 15t-18.5 41v427h-214l-47 -202h47v-252q0 -90 61 -158q74 -83 210 -83q126 0 205 62q86 68 86 192zM512 861h-178l-89 -130h140z" />
    <glyph glyph-name="Ucircumflex" unicode="&#xdb;" horiz-adv-x="637" 
d="M603 243v441h-213v-415q0 -68 -71 -68q-27 0 -45.5 15t-18.5 41v427h-214l-47 -202h47v-252q0 -90 61 -158q74 -83 210 -83q126 0 205 62q86 68 86 192zM526 737l-119 122h-166l-120 -122h147l58 50l54 -50h146z" />
    <glyph glyph-name="Udieresis" unicode="&#xdc;" horiz-adv-x="637" 
d="M603 243v441h-213v-415q0 -68 -71 -68q-27 0 -45.5 15t-18.5 41v427h-214l-47 -202h47v-252q0 -90 61 -158q74 -83 210 -83q126 0 205 62q86 68 86 192zM563 900h-176l-39 -153h175zM326 900h-177l-39 -153h175z" />
    <glyph glyph-name="Yacute" unicode="&#xdd;" horiz-adv-x="560" 
d="M588 684h-237l-70 -149l-67 149h-241l205 -376v-308h212v308zM473 866h-178l-89 -130h140z" />
    <glyph glyph-name="Thorn" unicode="&#xde;" horiz-adv-x="619" 
d="M590 353q0 89 -51 163q-60 87 -157 87q-96 0 -164 -71v183h-173v-775h193v200q-8 0 50 -26q60 -26 89 -26q105 0 162 83q51 73 51 182zM398 351q0 -40 -20 -75q-22 -40 -61 -40q-40 0 -63 32q-21 28 -21 71q0 48 18 80q22 40 66 40q40 0 63 -35q18 -29 18 -73z" />
    <glyph glyph-name="germandbls" unicode="&#xdf;" horiz-adv-x="591" 
d="M577 228q0 74 -28 121q-27 45 -91 85q63 63 63 130q0 83 -69 125q-58 35 -146 35q-112 0 -179 -41q-81 -49 -73 -157l2 -26h-15l-47 -194h47v-306h214v514q0 46 44 46q36 0 36 -42q0 -38 -57 -48v-154q95 0 95 -66q0 -57 -65 -66l-34 -184q131 0 208 47q95 59 95 181z
" />
    <glyph glyph-name="agrave" unicode="&#xe0;" horiz-adv-x="594" 
d="M600 192h-48v308h-174l-8 -23q-50 32 -113 32q-109 0 -177 -74q-67 -73 -67 -185q0 -115 78 -185q77 -70 194 -65h24l43 70v-70h200zM352 193h-51q-80 0 -80 62q0 27 21 47.5t48 20.5q22 0 42 -14.5t20 -35.5v-80zM269 553l-71 133h-193l119 -133h145z" />
    <glyph glyph-name="aacute" unicode="&#xe1;" horiz-adv-x="594" 
d="M600 192h-48v308h-174l-8 -23q-50 32 -113 32q-109 0 -177 -74q-67 -73 -67 -185q0 -115 78 -185q77 -70 194 -65h24l43 70v-70h200zM352 193h-51q-80 0 -80 62q0 27 21 47.5t48 20.5q22 0 42 -14.5t20 -35.5v-80zM483 679h-178l-89 -130h140z" />
    <glyph glyph-name="acircumflex" unicode="&#xe2;" horiz-adv-x="594" 
d="M600 192h-48v308h-174l-8 -23q-50 32 -113 32q-109 0 -177 -74q-67 -73 -67 -185q0 -115 78 -185q77 -70 194 -65h24l43 70v-70h200zM352 193h-51q-80 0 -80 62q0 27 21 47.5t48 20.5q22 0 42 -14.5t20 -35.5v-80zM497 549l-119 122h-166l-120 -122h147l58 50l54 -50h146
z" />
    <glyph glyph-name="atilde" unicode="&#xe3;" horiz-adv-x="594" 
d="M600 192h-48v308h-174l-8 -23q-50 32 -113 32q-109 0 -177 -74q-67 -73 -67 -185q0 -115 78 -185q77 -70 194 -65h24l43 70v-70h200zM352 193h-51q-80 0 -80 62q0 27 21 47.5t48 20.5q22 0 42 -14.5t20 -35.5v-80zM402 623l-72 59q-28 -40 -58 -40q-11 0 -92 31
q-39 14 -66 14q-65 0 -120 -87l71 -63q11 15 19 23q23 23 42 23t54 -15q70 -30 103 -30q77 0 119 85z" />
    <glyph glyph-name="adieresis" unicode="&#xe4;" horiz-adv-x="594" 
d="M600 192h-48v308h-174l-8 -23q-50 32 -113 32q-109 0 -177 -74q-67 -73 -67 -185q0 -115 78 -185q77 -70 194 -65h24l43 70v-70h200zM352 193h-51q-80 0 -80 62q0 27 21 47.5t48 20.5q22 0 42 -14.5t20 -35.5v-80zM542 711h-161l-35 -170h159zM326 711h-161l-35 -170h159
z" />
    <glyph glyph-name="aring" unicode="&#xe5;" horiz-adv-x="594" 
d="M600 192h-48v308h-174l-8 -23q-50 32 -113 32q-109 0 -177 -74q-67 -73 -67 -185q0 -115 78 -185q77 -70 194 -65h24l43 70v-70h200zM352 193h-51q-80 0 -80 62q0 27 21 47.5t48 20.5q22 0 42 -14.5t20 -35.5v-80zM417 619q0 45 -42 74q-38 26 -85 26q-49 0 -87 -23
q-44 -27 -44 -73q0 -44 44 -73q37 -25 86 -25q47 0 85 23q43 25 43 71zM327 621q0 -40 -38 -40q-40 0 -40 38q0 40 39 40q16 0 27.5 -11t11.5 -27z" />
    <glyph glyph-name="ae" unicode="&#xe6;" horiz-adv-x="899" 
d="M886 199q0 131 -63 215q-70 94 -197 94q-39 0 -76 -8h-184v-20q-47 24 -94 24q-113 0 -186 -75q-72 -75 -72 -189q0 -105 71 -176q72 -69 179 -69q28 0 48 4l33 73v-72h190l3 12q66 -23 142 -23q72 0 134 15l45 165q-9 -2 -16.5 -4t-14.5 -3q-39 -6 -89 -6
q-104 0 -159 43h306zM688 323h-122q0 48 54 48q51 0 68 -48zM348 188l-21 -1q-114 -5 -114 75q0 27 21.5 45.5t48.5 18.5q65 0 65 -81v-57z" />
    <glyph glyph-name="ccedilla" unicode="&#xe7;" horiz-adv-x="386" 
d="M379 490q-49 20 -99 20q-103 0 -184 -72q-84 -75 -84 -176q0 -122 77 -196t200 -74q24 0 77 9l-37 177q-15 -4 -40 -4q-82 0 -82 67q0 37 23 57.5t61 20.5q19 0 40 -12zM315 -53v34h-143v-176q31 0 57.5 10.5t45.5 29t29.5 44.5t10.5 58z" />
    <glyph glyph-name="egrave" unicode="&#xe8;" horiz-adv-x="544" 
d="M533 209v26q0 116 -73 195q-74 80 -188 80q-115 0 -188 -70q-72 -71 -72 -184q0 -132 104 -201q89 -59 228 -59q18 0 47 2.5t70 7.5l46 174q-107 -23 -151 -23q-94 0 -122 52h299zM331 308h-125q0 28 18 44.5t46 16.5q27 0 44 -17t17 -44zM269 545l-71 133h-193l119 -133
h145z" />
    <glyph glyph-name="eacute" unicode="&#xe9;" horiz-adv-x="544" 
d="M533 209v26q0 116 -73 195q-74 80 -188 80q-115 0 -188 -70q-72 -71 -72 -184q0 -132 104 -201q89 -59 228 -59q18 0 47 2.5t70 7.5l46 174q-107 -23 -151 -23q-94 0 -122 52h299zM331 308h-125q0 28 18 44.5t46 16.5q27 0 44 -17t17 -44zM457 678h-178l-89 -130h140z
" />
    <glyph glyph-name="ecircumflex" unicode="&#xea;" horiz-adv-x="544" 
d="M533 209v26q0 116 -73 195q-74 80 -188 80q-115 0 -188 -70q-72 -71 -72 -184q0 -132 104 -201q89 -59 228 -59q18 0 47 2.5t70 7.5l46 174q-107 -23 -151 -23q-94 0 -122 52h299zM331 308h-125q0 28 18 44.5t46 16.5q27 0 44 -17t17 -44zM399 552l-119 122h-166
l-120 -122h147l58 50l54 -50h146z" />
    <glyph glyph-name="edieresis" unicode="&#xeb;" horiz-adv-x="544" 
d="M533 209v26q0 116 -73 195q-74 80 -188 80q-115 0 -188 -70q-72 -71 -72 -184q0 -132 104 -201q89 -59 228 -59q18 0 47 2.5t70 7.5l46 174q-107 -23 -151 -23q-94 0 -122 52h299zM331 308h-125q0 28 18 44.5t46 16.5q27 0 44 -17t17 -44zM512 711h-161l-35 -170h159z
M296 711h-161l-35 -170h159z" />
    <glyph glyph-name="igrave" unicode="&#xec;" horiz-adv-x="282" 
d="M293 192h-48v308h-199l-48 -187h47v-313h200zM239 549l-71 133h-192l118 -133h145z" />
    <glyph glyph-name="iacute" unicode="&#xed;" horiz-adv-x="282" 
d="M290 192h-48v308h-199l-48 -187h47v-313h200zM302 679h-178l-89 -130h140z" />
    <glyph glyph-name="icircumflex" unicode="&#xee;" horiz-adv-x="282" 
d="M291 192h-48v308h-199l-48 -187h47v-313h200zM298 559l-98 102h-138l-99 -102h122l48 42l44 -42h121z" />
    <glyph glyph-name="idieresis" unicode="&#xef;" horiz-adv-x="282" 
d="M289 192h-48v308h-199l-48 -187h47v-313h200zM362 711h-161l-35 -170h159zM146 711h-160l-35 -170h158z" />
    <glyph glyph-name="eth" unicode="&#xf0;" horiz-adv-x="580" 
d="M560 226q0 70 -33 123l-149 235l44 16l-36 96l-64 -23l-19 28h-249l65 -102l-60 -21l35 -96l82 29l41 -64q-209 -44 -209 -201q0 -119 87 -189q81 -66 201 -66q108 0 184 62q80 66 80 173zM344 238q0 -24 -18 -39t-42 -15q-9 0 -19.5 5t-19 13.5t-14 18.5t-5.5 19
t5.5 18.5t14.5 17t19.5 12t20.5 4.5t20.5 -4.5t18.5 -12t13.5 -17.5t5.5 -20z" />
    <glyph glyph-name="ntilde" unicode="&#xf1;" horiz-adv-x="565" 
d="M572 192h-48v169q0 139 -140 139h-110l-40 -87v87h-193l-47 -187h47v-313h193v307q34 8 43 8q54 0 54 -39v-276h193zM402 623l-72 59q-28 -40 -58 -40q-11 0 -92 31q-39 14 -66 14q-65 0 -120 -87l71 -63q11 15 19 23q23 23 42 23t54 -15q70 -30 103 -30q77 0 119 85z
" />
    <glyph glyph-name="ograve" unicode="&#xf2;" horiz-adv-x="564" 
d="M550 250q0 113 -78 185t-192 72q-113 0 -189 -72q-79 -73 -79 -186q0 -114 76 -187t190 -73q116 0 194 72q78 73 78 189zM353 249q0 -77 -69 -77q-16 0 -30.5 5.5t-26 15t-18 23t-6.5 28.5q0 31 22.5 54.5t53.5 23.5q32 0 53 -20.5t21 -52.5zM269 546l-71 133h-193
l119 -133h145z" />
    <glyph glyph-name="oacute" unicode="&#xf3;" horiz-adv-x="564" 
d="M550 250q0 113 -78 185t-192 72q-113 0 -189 -72q-79 -73 -79 -186q0 -114 76 -187t190 -73q116 0 194 72q78 73 78 189zM353 249q0 -77 -69 -77q-16 0 -30.5 5.5t-26 15t-18 23t-6.5 28.5q0 31 22.5 54.5t53.5 23.5q32 0 53 -20.5t21 -52.5zM457 674h-178l-89 -130h140z
" />
    <glyph glyph-name="ocircumflex" unicode="&#xf4;" horiz-adv-x="564" 
d="M550 250q0 113 -78 185t-192 72q-113 0 -189 -72q-79 -73 -79 -186q0 -114 76 -187t190 -73q116 0 194 72q78 73 78 189zM353 249q0 -77 -69 -77q-16 0 -30.5 5.5t-26 15t-18 23t-6.5 28.5q0 31 22.5 54.5t53.5 23.5q32 0 53 -20.5t21 -52.5zM482 547l-119 122h-166
l-120 -122h147l58 50l54 -50h146z" />
    <glyph glyph-name="otilde" unicode="&#xf5;" horiz-adv-x="564" 
d="M550 250q0 113 -78 185t-192 72q-113 0 -189 -72q-79 -73 -79 -186q0 -114 76 -187t190 -73q116 0 194 72q78 73 78 189zM353 249q0 -77 -69 -77q-16 0 -30.5 5.5t-26 15t-18 23t-6.5 28.5q0 31 22.5 54.5t53.5 23.5q32 0 53 -20.5t21 -52.5zM402 621l-72 59
q-28 -40 -58 -40q-11 0 -92 31q-39 14 -66 14q-65 0 -120 -87l71 -63q11 15 19 23q23 23 42 23t54 -15q70 -30 103 -30q77 0 119 85z" />
    <glyph glyph-name="odieresis" unicode="&#xf6;" horiz-adv-x="564" 
d="M550 250q0 113 -78 185t-192 72q-113 0 -189 -72q-79 -73 -79 -186q0 -114 76 -187t190 -73q116 0 194 72q78 73 78 189zM353 249q0 -77 -69 -77q-16 0 -30.5 5.5t-26 15t-18 23t-6.5 28.5q0 31 22.5 54.5t53.5 23.5q32 0 53 -20.5t21 -52.5zM512 711h-161l-35 -170h159z
M296 711h-161l-35 -170h159z" />
    <glyph glyph-name="divide" unicode="&#xf7;" 
d="M395 456q0 36 -31 61q-31 26 -67 26q-39 0 -68 -23q-32 -24 -32 -62q0 -39 29 -62.5t69 -23.5q37 0 69 23q31 24 31 61zM509 244v92h-430v-92h430zM395 116q0 36 -31 61q-31 26 -67 26q-39 0 -68 -23q-32 -24 -32 -62q0 -39 29 -62.5t69 -23.5q37 0 69 23q31 24 31 61z
" />
    <glyph glyph-name="oslash" unicode="&#xf8;" horiz-adv-x="564" 
d="M558 500h-46l-56 -54q-73 64 -164 64q-114 0 -196 -73q-86 -77 -86 -189q0 -100 81 -187l-69 -83h44l51 60q73 -49 165 -49q119 0 196 74q76 75 76 195q0 42 -22 90q-21 50 -51 77zM358 240q0 -29 -20.5 -48.5t-49.5 -19.5q-22 0 -33 8l92 98q11 -16 11 -38zM317 311
l-91 -101q-16 13 -16 32q0 15 6.5 29.5t18 25t26 17t29.5 6.5q6 0 27 -9z" />
    <glyph glyph-name="ugrave" unicode="&#xf9;" horiz-adv-x="566" 
d="M573 192h-48v308h-192v-308h-44q-55 0 -55 67v241h-193l-47 -181h47v-167q0 -66 42 -109t107 -43h93l50 96v-96h192zM269 545l-71 133h-193l119 -133h145z" />
    <glyph glyph-name="uacute" unicode="&#xfa;" horiz-adv-x="566" 
d="M573 192h-48v308h-192v-308h-44q-55 0 -55 67v241h-193l-47 -181h47v-167q0 -66 42 -109t107 -43h93l50 96v-96h192zM467 669h-178l-89 -130h140z" />
    <glyph glyph-name="ucircumflex" unicode="&#xfb;" horiz-adv-x="566" 
d="M573 192h-48v308h-192v-308h-44q-55 0 -55 67v241h-193l-47 -181h47v-167q0 -66 42 -109t107 -43h93l50 96v-96h192zM399 554l-119 122h-166l-120 -122h147l58 50l54 -50h146z" />
    <glyph glyph-name="udieresis" unicode="&#xfc;" horiz-adv-x="566" 
d="M573 192h-48v308h-192v-308h-44q-55 0 -55 67v241h-193l-47 -181h47v-167q0 -66 42 -109t107 -43h93l50 96v-96h192zM512 711h-161l-35 -170h159zM296 711h-161l-35 -170h159z" />
    <glyph glyph-name="yacute" unicode="&#xfd;" horiz-adv-x="563" 
d="M529 18v482h-192v-301q-13 -5 -35 -5q-65 0 -65 62v244h-196l-47 -197h47v-159q0 -58 43 -86q38 -26 97 -26h115l41 75v-49q0 -69 -90 -69q-75 0 -162 35l-39 -158q102 -41 224 -41q119 0 181 36q78 46 78 157zM494 676h-178l-89 -130h140z" />
    <glyph glyph-name="thorn" unicode="&#xfe;" horiz-adv-x="619" 
d="M590 253q0 98 -54 170q-59 80 -154 80q-72 0 -126 -36q-18 -12 -38 -35v183h-173v-775h193v200q28 -17 43.5 -26t19.5 -11q30 -14 76 -14q106 0 163 82q50 73 50 182zM398 251q0 -40 -20 -75q-22 -40 -61 -40q-40 0 -63 32q-21 28 -21 71q0 45 19 79q23 41 65 41
q39 0 62 -36q19 -29 19 -72z" />
    <glyph glyph-name="ydieresis" unicode="&#xff;" horiz-adv-x="563" 
d="M529 18v482h-192v-301q-13 -5 -35 -5q-65 0 -65 62v244h-196l-47 -197h47v-159q0 -58 43 -86q38 -26 97 -26h115l41 75v-49q0 -69 -90 -69q-75 0 -162 35l-39 -158q102 -41 224 -41q119 0 181 36q78 46 78 157zM512 711h-161l-35 -170h159zM296 711h-161l-35 -170h159z
" />
    <glyph glyph-name="OE" unicode="&#x152;" horiz-adv-x="1012" 
d="M1005 711h-192l-11 -27h-327q-10 2 -17 3t-11 2q-59 9 -81 9q-154 0 -254 -105q-100 -103 -100 -259q0 -159 131 -260q107 -82 226 -82l84 8h465l63 210h-237v53h198l41 165h-236v43h194zM516 348q0 -66 -40 -101t-106 -35q-56 0 -96 39q-40 40 -40 95q0 60 40 97
q40 39 99 39q31 0 57.5 -9.5t45.5 -27t29.5 -42.5t10.5 -55z" />
    <glyph glyph-name="oe" unicode="&#x153;" horiz-adv-x="898" 
d="M884 230q4 127 -85 210q-74 70 -175 70q-78 0 -175 -57q-28 24 -78 41q-49 17 -88 17q-115 0 -191 -72q-80 -74 -80 -186t79 -188t191 -76q97 0 174 62q100 -58 234 -58q81 0 126 13l43 166q-72 -15 -149 -15q-95 0 -127 44h300zM680 309h-122q0 62 61 62q27 0 44 -17.5
t17 -44.5zM352 244q0 -27 -21.5 -46t-48.5 -19q-32 0 -53.5 19.5t-21.5 50.5q0 32 21 53.5t53 21.5q34 0 52.5 -22.5t18.5 -57.5z" />
    <glyph glyph-name="Scaron" unicode="&#x160;" horiz-adv-x="549" 
d="M528 222q0 97 -72 153q-39 30 -131 62q-71 24 -71 44q0 32 48 32q27 0 80 -18q47 -16 77 -33l61 217l-180 35l-7 -22q-17 2 -28.5 3t-17.5 1h-32q-102 0 -165 -54q-67 -57 -67 -157q0 -98 73 -153q41 -30 134 -61q72 -24 72 -48q0 -32 -45 -32q-39 0 -93 21l-89 39
l-54 -198q120 -66 239 -66q114 0 188 59q80 65 80 176zM472 872h-146l-54 -69l-58 69h-147l120 -132h166z" />
    <glyph glyph-name="scaron" unicode="&#x161;" horiz-adv-x="418" 
d="M406 157q0 57 -48 95q-32 24 -89 46q-48 18 -48 29q0 21 26 21q34 0 90 -41l47 147q-91 53 -185 53q-40 0 -73.5 -11.5t-57.5 -33.5t-37 -53.5t-13 -70.5q0 -59 47 -97q30 -24 88 -44q47 -17 47 -25q0 -25 -31 -25q-35 0 -111 46l-41 -161q113 -40 195 -40q84 0 136 40
q58 43 58 125zM399 681h-146l-54 -69l-58 69h-147l120 -132h166z" />
    <glyph glyph-name="Ydieresis" unicode="&#x178;" horiz-adv-x="560" 
d="M582 684h-237l-70 -149l-67 149h-241l205 -376v-308h212v308zM505 802q0 32 -32 55q-29 20 -63 20q-36 0 -64 -18q-33 -21 -33 -55t32 -55q27 -18 63 -18q35 0 64 17q33 19 33 54zM263 802q0 32 -32 55q-29 20 -63 20q-36 0 -64 -18q-33 -21 -33 -55t32 -55
q27 -18 63 -18q35 0 64 17q33 19 33 54z" />
    <glyph glyph-name="florin" unicode="&#x192;" horiz-adv-x="453" 
d="M487 711h-105q-111 0 -159 -51q-39 -41 -68 -160h-15l-88 -187h62l-55 -277q-8 -41 -42 -41q-1 0 -4.5 0.5t-8.5 1.5q-3 0 -5 1l-79 -161h121q167 0 198 145l74 331h39l88 187h-94q0 18 15.5 29t34.5 11l11 -2z" />
    <glyph glyph-name="circumflex" unicode="&#x2c6;" horiz-adv-x="400" 
d="M400 679l-119 122h-166l-120 -122h147l58 50l54 -50h146z" />
    <glyph glyph-name="tilde" unicode="&#x2dc;" horiz-adv-x="400" 
d="M403 727l-72 59q-28 -40 -58 -40q-11 0 -92 31q-39 14 -66 14q-65 0 -120 -87l71 -63q11 15 19 23q23 23 42 23t54 -15q70 -30 103 -30q77 0 119 85z" />
    <glyph glyph-name="endash" unicode="&#x2013;" 
d="M575 187v134h-553v-134h553z" />
    <glyph glyph-name="emdash" unicode="&#x2014;" horiz-adv-x="1000" 
d="M974 187v134h-952v-134h952z" />
    <glyph glyph-name="quoteleft" unicode="&#x2018;" horiz-adv-x="277" 
d="M249 519q0 31 -23 57.5t-54 35.5q2 16 7 34.5t12 39.5l-11 9q-66 -11 -112 -60q-50 -53 -50 -116q0 -24 9 -44t24.5 -35t37 -23t45.5 -8t45 8t36.5 23t24.5 35t9 44z" />
    <glyph glyph-name="quoteright" unicode="&#x2019;" horiz-adv-x="277" 
d="M250 585q0 24 -9 44t-24.5 35t-37 23t-45.5 8t-45 -8t-36.5 -23t-24.5 -35t-9 -44q0 -31 23 -57.5t54 -35.5q-2 -16 -7 -34.5t-12 -39.5l11 -9q64 10 113 61q49 50 49 115z" />
    <glyph glyph-name="quotesinglbase" unicode="&#x201a;" horiz-adv-x="277" 
d="M250 99q0 24 -9 44t-24.5 35t-37 23t-45.5 8t-45 -8t-36.5 -23t-24.5 -35t-9 -44q0 -31 23 -57.5t54 -35.5q-2 -16 -7 -34t-12 -39l11 -9q64 10 113 61q49 49 49 114z" />
    <glyph glyph-name="quotedblleft" unicode="&#x201c;" horiz-adv-x="528" 
d="M499 519q0 31 -23 57.5t-54 35.5q2 16 7 34.5t12 39.5l-11 9q-66 -11 -112 -60q-50 -53 -50 -116q0 -24 9 -44t24.5 -35t37 -23t45.5 -8t45 8t36.5 23t24.5 35t9 44zM249 519q0 31 -23 57.5t-54 35.5q2 16 7 34.5t12 39.5l-11 9q-66 -11 -112 -60q-50 -53 -50 -116
q0 -24 9 -44t24.5 -35t37 -23t45.5 -8t45 8t36.5 23t24.5 35t9 44z" />
    <glyph glyph-name="quotedblright" unicode="&#x201d;" horiz-adv-x="528" 
d="M500 585q0 24 -9 44t-24.5 35t-37 23t-45.5 8t-45 -8t-36.5 -23t-24.5 -35t-9 -44q0 -31 23 -57.5t54 -35.5q-2 -16 -7 -34.5t-12 -39.5l11 -9q64 10 113 61q49 50 49 115zM250 585q0 24 -9 44t-24.5 35t-37 23t-45.5 8t-45 -8t-36.5 -23t-24.5 -35t-9 -44
q0 -31 23 -57.5t54 -35.5q-2 -16 -7 -34.5t-12 -39.5l11 -9q64 10 113 61q49 50 49 115z" />
    <glyph glyph-name="quotedblbase" unicode="&#x201e;" horiz-adv-x="528" 
d="M250 93q0 24 -9 44t-24.5 35t-37 23t-45.5 8t-45 -8t-36.5 -23t-24.5 -35t-9 -44q0 -31 23 -57.5t54 -35.5q-2 -16 -7 -34t-12 -39l11 -9q64 10 113 61q49 49 49 114zM500 93q0 24 -9 44t-24.5 35t-37 23t-45.5 8t-45 -8t-36.5 -23t-24.5 -35t-9 -44q0 -31 23 -57.5
t54 -35.5q-2 -16 -7 -34t-12 -39l11 -9q64 10 113 61q49 49 49 114z" />
    <glyph glyph-name="dagger" unicode="&#x2020;" horiz-adv-x="500" 
d="M468 380v129h-143v158h-155v-158h-146v-129h143v-477h158v477h143z" />
    <glyph glyph-name="daggerdbl" unicode="&#x2021;" horiz-adv-x="500" 
d="M468 189v123h-143v96h143v125h-143v134h-158v-134h-143v-125h143v-96h-143v-123h143v-286h158v286h143z" />
    <glyph glyph-name="bullet" unicode="&#x2022;" horiz-adv-x="356" 
d="M285 311q0 47 -34 81t-81 34q-24 0 -45 -9t-36 -24.5t-24 -36.5t-9 -45t9 -45t24 -36.5t36 -24.5t45 -9q47 0 81 34t34 81z" />
    <glyph glyph-name="ellipsis" unicode="&#x2026;" horiz-adv-x="1000" 
d="M297 95q0 47 -34 81t-81 34q-24 0 -45 -9t-36 -24.5t-24 -36.5t-9 -45t9 -45t24 -36t36 -24t45 -9q46 0 81 33q34 34 34 81zM647 95q0 47 -34 81t-81 34q-24 0 -45 -9t-36 -24.5t-24 -36.5t-9 -45t9 -45t24 -36t36 -24t45 -9q46 0 81 33q34 34 34 81zM997 95q0 47 -34 81
t-81 34q-24 0 -45 -9t-36 -24.5t-24 -36.5t-9 -45t9 -45t24 -36t36 -24t45 -9q46 0 81 33q34 34 34 81z" />
    <glyph glyph-name="perthousand" unicode="&#x2030;" horiz-adv-x="1040" 
d="M1003 176q0 77 -36 130q-41 59 -115 59q-70 0 -109 -61q-34 -52 -34 -126q0 -75 35 -127q40 -58 113 -58q75 0 113 56q33 49 33 127zM683 176q0 77 -36 130q-41 59 -115 59q-70 0 -109 -61q-34 -52 -34 -126q0 -75 35 -127q40 -58 113 -58q75 0 113 56q33 49 33 127z
M334 509q0 77 -36 130q-41 59 -115 59q-70 0 -109 -61q-34 -52 -34 -126q0 -75 36 -127q41 -59 113 -59q74 0 112 57q33 49 33 127zM607 664l-59 39l-438 -689l59 -36zM893 176q0 -73 -37 -73t-37 70q0 86 36 86q38 0 38 -83zM573 176q0 -73 -37 -73t-37 70q0 86 36 86
q38 0 38 -83zM224 509q0 -73 -36 -73q-38 0 -38 69q0 87 37 87t37 -83z" />
    <glyph glyph-name="guilsinglleft" unicode="&#x2039;" horiz-adv-x="364" 
d="M343 54l-142 217l123 182l-128 83l-175 -265l191 -298z" />
    <glyph glyph-name="guilsinglright" unicode="&#x203a;" horiz-adv-x="364" 
d="M343 238l-191 298l-131 -82l141 -217l-122 -182l128 -82z" />
    <glyph glyph-name="trademark" unicode="&#x2122;" horiz-adv-x="705" 
d="M281 760h-97l-3 -15h-137l-24 -101h64v-241h106v241h63zM662 402v342h-105l-57 -72l-62 72h-108l-25 -103h25v-239h107v185l64 -68l61 75v-192h100z" />
    <glyph glyph-name="minus" unicode="&#xe002;" 
d="M509 244v92h-430v-92h430z" />
    <glyph glyph-name="dieresis-alt" unicode="&#xe003;" horiz-adv-x="282" 
d="M393 900h-176l-39 -153h175zM156 900h-176l-39 -153h174z" />
    <glyph glyph-name="DST" unicode="&#xe004;" horiz-adv-x="1400" 
d="M1370 512q0 -29 -22 -50t-51 -21h-146q-19 0 -25 -6q-10 -13 -10 -39v-302q0 -14 2 -22q0 -9 17 -20v-55q-72 15 -72 85v322q0 94 96 94h136q20 0 20 18q0 17 -20 17h-146q-39 0 -62.5 23.5t-23.5 62.5v131h57v-131q0 -35 37 -35h148q28 0 46.5 -22t18.5 -50zM983 86
q0 -33 -23 -64q-28 -23 -63 -23h-282q-30 0 -50 19.5t-20 49.5q0 28 18 52q19 21 47 21h279v-53h-270q-8 0 -14.5 -7t-5.5 -15q3 -17 22 -17h250q61 0 61 45v76q0 45 -45 45h-250q-38 0 -67 26q-25 28 -25 66v89q0 45 26.5 73.5t71.5 28.5h246q76 0 89 -76h-50
q-20 21 -43 21h-244q-41 0 -41 -43v-95q0 -37 41 -37h246q43 0 69.5 -23t26.5 -65v-94zM475 66q0 -30 -21.5 -51.5t-51.5 -21.5q-31 0 -52 23q-20 20 -20 53v144l-2 25q-5 10 -18 23l-164 163q-11 14 -27 14q-10 0 -17 -6q-8 -22 -8 -32v-310q0 -17 8 -28q7 -15 27 -15h81
q13 6 25 21h53q-14 -71 -77 -71h-82q-88 0 -88 95v330q0 33 25 52q22 16 57 16q33 0 52 -19l179 -177q31 -31 31 -75v-151q0 -21 19 -21q10 0 18 21v678h53v-680zM-8 -90h1403v840h-1403v-840z" />
    </font>
</defs>
</svg>
